<svg width="16" height="16" viewBox="0 0 16 16" fill="none" xmlns="http://www.w3.org/2000/svg">
<g clip-path="url(#clip0_5626_33)">
<mask id="mask0_5626_33" style="mask-type:luminance" maskUnits="userSpaceOnUse" x="0" y="0" width="16" height="16">
<path d="M8 16C12.4183 16 16 12.4183 16 8C16 3.58172 12.4183 0 8 0C3.58172 0 0 3.58172 0 8C0 12.4183 3.58172 16 8 16Z" fill="white"/>
</mask>
<g mask="url(#mask0_5626_33)">
<path d="M0 0H16V16H0V0Z" fill="#EEEEEE"/>
<path d="M10.9375 10.4688L11.6875 9.71875L12.1875 10.2188L11.4375 10.9375L10.9375 10.4688ZM9.71875 11.6875L10.4688 10.9375L10.9375 11.4375L10.2188 12.1875L9.71875 11.6875ZM12.4375 11.9375L13.1562 11.1875L13.6562 11.6875L12.9062 12.4375L12.4375 11.9375ZM11.1875 13.1562L11.9375 12.4375L12.4375 12.9062L11.6875 13.6562L11.1875 13.1562ZM11.6875 11.1875L12.4375 10.4688L12.9062 10.9375L12.1875 11.6875L11.6875 11.1875ZM10.4688 12.4375L11.1875 11.6875L11.6875 12.1875L10.9375 12.9062L10.4688 12.4375ZM12.4375 5.53125L10.4688 3.5625L10.9375 3.09375L12.9375 5.0625L12.4375 5.53125ZM10.4688 5.0625L9.71875 4.3125L10.2188 3.8125L10.9375 4.5625L10.4688 5.0625ZM11.6875 6.28125L10.9375 5.53125L11.4375 5.0625L12.1875 5.78125L11.6875 6.28125ZM11.9375 3.5625L11.1875 2.84375L11.6875 2.34375L12.4375 3.09375L11.9375 3.5625ZM13.1562 4.8125L12.4375 4.0625L12.9062 3.5625L13.6562 4.3125L13.1562 4.8125ZM2.84375 11.1875L4.8125 13.1562L4.3125 13.6562L2.34375 11.6875L2.84375 11.1875ZM4.8125 11.6875L5.53125 12.4375L5.0625 12.9062L4.3125 12.1875L4.8125 11.6875ZM3.5625 10.4688L4.3125 11.1875L3.8125 11.6875L3.09375 10.9375L3.5625 10.4688ZM4.3125 9.71875L6.28125 11.6875L5.78125 12.1875L3.8125 10.2188L4.3125 9.71875ZM4.8125 2.84375L2.84375 4.8125L2.34375 4.3125L4.3125 2.34375L4.8125 2.84375ZM5.53125 3.5625L3.5625 5.53125L3.09375 5.03125L5.0625 3.0625L5.53125 3.5625ZM6.28125 4.3125L4.3125 6.28125L3.8125 5.78125L5.78125 3.8125L6.28125 4.3125Z" fill="#333333"/>
<path d="M9.96875 9.96783L6.03125 6.03033C6.28979 5.77179 6.59672 5.5667 6.93452 5.42678C7.27232 5.28686 7.63437 5.21484 8 5.21484C8.36563 5.21484 8.72768 5.28686 9.06548 5.42678C9.40328 5.5667 9.71021 5.77179 9.96875 6.03033C10.2273 6.28887 10.4324 6.5958 10.5723 6.9336C10.7122 7.2714 10.7842 7.63345 10.7842 7.99908C10.7842 8.36471 10.7122 8.72676 10.5723 9.06456C10.4324 9.40236 10.2273 9.70929 9.96875 9.96783Z" fill="#D80027"/>
<path d="M9.96783 9.96875C9.70929 10.2273 9.40236 10.4324 9.06456 10.5723C8.72676 10.7122 8.36471 10.7842 7.99908 10.7842C7.63345 10.7842 7.2714 10.7122 6.9336 10.5723C6.5958 10.4324 6.28887 10.2273 6.03033 9.96875C5.77179 9.71021 5.5667 9.40328 5.42678 9.06548C5.28686 8.72768 5.21484 8.36563 5.21484 8C5.21484 7.63437 5.28686 7.27232 5.42678 6.93452C5.5667 6.59672 5.77179 6.28979 6.03033 6.03125L9.96783 9.96875Z" fill="#0052B4"/>
<path d="M7.01562 8.40625C7.78365 8.40625 8.40625 7.78365 8.40625 7.01562C8.40625 6.2476 7.78365 5.625 7.01562 5.625C6.2476 5.625 5.625 6.2476 5.625 7.01562C5.625 7.78365 6.2476 8.40625 7.01562 8.40625Z" fill="#D80027"/>
<path d="M8.98438 10.375C9.7524 10.375 10.375 9.7524 10.375 8.98438C10.375 8.21635 9.7524 7.59375 8.98438 7.59375C8.21635 7.59375 7.59375 8.21635 7.59375 8.98438C7.59375 9.7524 8.21635 10.375 8.98438 10.375Z" fill="#0052B4"/>
</g>
</g>
<defs>
<clipPath id="clip0_5626_33">
<rect width="16" height="16" fill="white"/>
</clipPath>
</defs>
</svg>
