<svg width="92" height="42" viewBox="0 0 92 42" fill="none" xmlns="http://www.w3.org/2000/svg">
<path fill-rule="evenodd" clip-rule="evenodd" d="M72.4936 31.5864C72.911 31.9711 72.9376 32.6213 72.5529 33.0388C71.3807 34.3109 69.6935 35.1094 67.8216 35.1094C65.9498 35.1094 64.2626 34.3109 63.0903 33.0388C62.7057 32.6213 62.7322 31.9711 63.1497 31.5864C63.5671 31.2018 64.2174 31.2283 64.602 31.6458C65.3997 32.5114 66.5453 33.0537 67.8216 33.0537C69.0979 33.0537 70.2436 32.5114 71.0412 31.6458C71.4259 31.2283 72.0761 31.2018 72.4936 31.5864Z" fill="white"/>
<path d="M52 8.17617C51.9973 7.53461 52.5154 7.01229 53.1573 7.00955L55.389 7.00001C56.0309 6.99727 56.5535 7.51513 56.5562 8.1567L56.6583 31.9967C56.661 32.6382 56.1429 33.1605 55.5009 33.1633L53.2693 33.1728C52.6274 33.1756 52.1048 32.6577 52.102 32.0161L52 8.17617Z" fill="white"/>
<path d="M84.3048 8.17618C84.3048 7.53461 83.7844 7.01452 83.1425 7.01452L80.9108 7.01452C80.2689 7.01452 79.7485 7.53461 79.7485 8.17618L79.7485 32.0164C79.7485 32.6579 80.2689 33.178 80.9108 33.178H83.1425C83.7844 33.178 84.3048 32.6579 84.3048 32.0164L84.3048 8.17618Z" fill="white"/>
<path d="M70.3858 25.8312C70.3858 27.2716 69.2175 28.4393 67.7763 28.4393C66.3351 28.4393 65.1668 27.2716 65.1668 25.8312C65.1668 24.3908 66.3351 23.2231 67.7763 23.2231C69.2175 23.2231 70.3858 24.3908 70.3858 25.8312Z" fill="white"/>
<path d="M56.4705 7.67877L56.4935 16.3706H79.7725V7.87728C78.2004 12.7751 73.5923 16.3216 68.1524 16.3216C62.6393 16.3216 57.9805 12.679 56.4705 7.67877Z" fill="white"/>
<path d="M79.7309 16.3725C79.7084 16.3712 79.6858 16.3706 79.6631 16.3706L55.8098 16.3705C55.1679 16.3705 54.6475 16.8906 54.6475 17.5322V20.1766C54.6475 20.8182 55.1679 21.3383 55.8098 21.3383H56.6192V16.3706C58.1891 19.2459 62.7695 21.3267 68.1756 21.3267C73.5804 21.3267 78.16 19.2468 79.7309 16.3725Z" fill="white"/>
<path d="M79.7319 16.3726V21.3363C80.3418 21.3007 80.8254 20.7951 80.8254 20.1766V17.5322C80.8254 16.9138 80.3418 16.4082 79.7319 16.3726Z" fill="white"/>
<path d="M14.1392 28.1327C14.1392 28.757 14.2346 29.1628 14.4573 29.3501C14.6481 29.5998 15.0616 29.6934 15.6342 29.6934H23.173C23.4592 29.6934 23.6819 29.7559 23.8091 29.8495C23.9364 29.9744 24 30.1617 24 30.4738V34.2196C24 34.5318 23.9364 34.7191 23.8091 34.8439C23.6819 34.9376 23.4592 35 23.173 35H11.8807C10.9901 35 10.2903 34.9064 9.78131 34.7191C9.27237 34.5318 8.89066 34.2508 8.63618 33.9387C8.3499 33.5641 8.19086 33.1583 8.12724 32.6901C8.03181 32.1906 8 31.6288 8 31.0669V7.78038C8 7.46823 8.06362 7.28094 8.19085 7.15608C8.31809 7.06243 8.50895 7 8.82704 7H13.3121C13.5984 7 13.8211 7.06243 13.9483 7.15608C14.0755 7.28094 14.1392 7.46823 14.1392 7.78038V28.1327Z" fill="white"/>
<path d="M28 7.78038C28 7.46823 28.0615 7.28094 28.1846 7.15608C28.3077 7.06243 28.4923 7 28.8 7H47.2C47.4769 7 47.6923 7.06243 47.8154 7.15608C47.9385 7.28094 48 7.46823 48 7.78038V11.4326C48 11.7447 47.9385 11.9632 47.8154 12.0569C47.6923 12.1817 47.4769 12.2129 47.2 12.2129H40.9538V34.2196C40.9538 34.5318 40.8923 34.7191 40.7692 34.8439C40.6462 34.9376 40.4308 35 40.1538 35H35.8462C35.5385 35 35.3538 34.9376 35.2308 34.8439C35.1077 34.7191 35.0462 34.5318 35.0462 34.2196V12.2129H28.8C28.4923 12.2129 28.3077 12.1817 28.1846 12.0569C28.0615 11.9632 28 11.7447 28 11.4326V7.78038Z" fill="white"/>
</svg>
